<svg xmlns="http://www.w3.org/2000/svg" width="251" height="230"><path fill="#222629" fill-rule="evenodd" d="m167.348.03.196.04c2.635.471 1.983 3.994 1.001 7.715l-.575 2.123c-.14.517-.276 1.027-.4 1.523l-.173.731c-1.872 7.965-4.335 12.67-1.993 21.344.82 3.104 2.085 2.979 3.662 2.38l1.174-.471c.557-.217 1.144-.415 1.755-.5 3.47-.361 5.483 1.828 5.357 5.305l-.03.713-.014.507-.006.526c-.003 3.156.57 6.357 3.526 6.378l.233-.005c4.133-.06 8.84-.909 11.187-4.902l.684-1.13.706-1.201c1.692-2.926 2.826-5.31 3.456-7.845.856-3.048 3.748-6.028 6.836-5.864 2.957.232 5.503 2.792 4.702 5.324-.802 2.532-7.664 7.11-10.407 10.987-4.198 5.873-3.805 13.407-.381 16.191l.19.147c3.81 2.949 4.436 4.475 3.154 8.823l-.205.67c-.247.778-.494 1.557-.542 2.394-.146 2.11 1.227 4.174 3.518 5.35l.268.131c3.25 1.703 9.66.61 15.639-2.206 2.63-1.239 6.51-3.574 10.473-6.005l1.082-.665c4.689-2.884 9.347-5.777 12.051-7.028 1.497-.624 3.533-.556 4.549 1.02.744 1.071.913 2.931.407 3.846-1.216 2.292-6.19 4.428-11.413 6.387l-2.32.856-3.172 1.158-1.207.45c-1.577.595-3.013 1.17-4.181 1.722l-.757.369-.647.331-.706.38-.551.31c-4.06 2.334-10.382 6.983-13.52 14.953l-.208.546c-1.398 3.42-.108 7.734 2.843 9.892l.25.175c3.53 2.53 7.21 2.87 11.058 1.66 2.392-.798 4.483-2.156 6.964-2.274l.47-.007c1.968-.059 4.568 1.985 3.637 4.585-.93 2.62-3.883 2.306-6.027 2.522l-1.205.15-.795.114c-3.534.547-6.458 1.585-8.82 4.714l-.251.344c-2.107 2.893-2.204 4.568 1.816 8.626 2.94 3.044 3.052 4.953.5 7.743l-.206.222c-.384.467-.927.825-1.498 1.162l-.577.334c-.288.167-.572.337-.837.52-3.302 2.221-3.155 6.204.109 8.55l.935.663.647.445.669.446c2.84 1.858 6.355 3.702 11.664 5.1.686.17 1.409.336 2.157.502l4.036.875.869.193.867.198.862.203.853.21.84.219c4.024 1.073 7.466 2.443 8.425 4.555 1.151 2.44-4.347 4.578-14.491-.558l-.42-.215c-8.515-4.425-13.84-5.203-18.446-5.568l-2.999-.218c-3.88-.398-7.92 4.16-6.797 7.791.627 1.782 1.767 2.97 2.53 5.004.832 2.161.741 4.158-.824 4.655-1.564.497-2.827-.301-3.428-.798-1.932-1.42-3.77-1.43-5.451-.222-1.682 1.208-2.093 3.536-1.269 5.375l.495 1.086.26.55.258.523.255.482c1.164 2.122 2.616 3.633 6.375 5.59l.404.208c5.633 2.725 6.501 9.9 3.667 9.278-6.052-.718-7.76-7.29-11.543-9.362-2.328-1.538-6.276-2.063-9.536-1-3.345 1.074-4.062 3.526-4.361 6.196l-.076.764-.064.762c.23 4.814-2.185 4.574-4.71 3.801l-.291-.091-.292-.095a102.24 102.24 0 0 1-.436-.144l-.289-.096a61.938 61.938 0 0 0-.143-.047l-.283-.092c-.61-.195-1.19-.358-1.701-.419-2.91-.345-2.763 6.411-2.111 9.485l.08.35c.579 2.619 1.608 4.838 4.099 7.915 2.62 3.007 5.088 8.206 5.592 10.377.306 2.113-.265 6.31-1.843 6.164-1.38-.087-3.809-3.358-4.968-5.51-1.16-2.15-3.966-11.068-5.213-14.31-.845-2.804-1.936-4.83-3.751-6.96-1.747-2.006-5.095-2.034-7.16-.3-1.294 1.146-2.488 1.348-3.814.443l-.182-.13c-2.464-1.79-5.633-2.724-8.285-.844-2.522 1.812-3.672 3.39-4.535 6.116-.922 2.915-.267 6.401.525 9.851l.588 2.526c.38 1.668.708 3.291.813 4.797.107 2.055-.7 4.266-2.785 5.036-2.048.756-5.992-1.41-5.34-8.522l.04-.386c.385-3.612-1.945-18.138-8.43-14.407-1.429.75-2.72 1.754-4.15 2.504-3.772 1.656-8.626-1.477-9.799-4.271-1.042-2.862-3.357-3.757-6.698-3.464-3.47.361-9.725 5.758-11.718 11.026-1.992 5.268-2.563 9.465-3.481 12.708-.919 3.242-2.301 6.242-5.144 8.384l-.324.2-.294.172-.348.191-.595.302-.448.205-.364.152-.375.143c-2.876 1.03-6.481.909-3.818-7.983.748-2.363 2.235-4.748 3.74-6.883l.94-1.303.885-1.209.662-.928c2.965-4.233 7-11.139 3.852-16.729l-.252-.631c-1.613-3.892-3.592-5.745-8.076-5.549-2.166.001-5.692.878-7.679-.026-3.668-1.701-1.32-5.95-4.275-7.395l-.65-.28-.228-.09-.273-.102-.313-.105-.34-.102c-1.786-.498-4.892-.825-8.957 1.195-4.415 2.319-8.634 7.783-14.24 12.838l-.423.367-.44.367-.446.359-.46.356c-4.035 3.069-9.31 5.61-10.223 2.576-1.765-5.371 9.98-10.967 14.346-14.108l.388-.287c4.073-2.952 9.734-8.523 12.36-11.689 1.984-2.503 3.031-5.814 1.184-9.552-.962-2.093-4.62-4.555-7.134-5.508-2.513-.954-7.474.353-9.587 2.924l-.325.39-.361.417c-2.095 2.37-4.982 4.793-7.365 3.422-1.857-.973-2.76-6.67 2.651-8.375l.901-.263.879-.266c4.059-1.26 5.477-2.175 8.083-4.976 1.805-1.597 3.488-5.891-.33-6.484-2.097.127-4.187.576-5.437.42l-.293.02-.434.018-.278.004-.271-.004c-2.278-.067-3.693-1.02.125-4.954 1.026-1.188 1.588-2.62.12-3.797-2.453-3.643-11.6-5.172-17.45-4.645l-.814.083-1.417.167-5.414.694-1.668.201a197.7 197.7 0 0 1-.853.098l-2.04.217-1.153.109-1.17.1c-5.957.473-11.434.374-11.887-1.75-1.02-4.986 8.162-5.261 11.304-5.613 1.266-.12 3.253-.044 5.477.082l4.067.246 1.381.076 1.348.062a67.15 67.15 0 0 0 1.908.052l2.526-.007 1.169-.022.934-.031c6.086-.242 15.208-1.455 16.48-7.627.635-3.651-1.333-4.763-3.413-5.559l-1.352-.5c-.896-.34-1.706-.714-2.21-1.319-1.4-1.642-.998-2.88-.393-3.99l.554-.966c3.167-5.56 10.784-5.34 10.133-11.493-.52-6.221-4.738-10.338-12.748-13.763l-1.162-.49-1.193-.485c-4.258-1.705-7.253-2.572-10.142-3.47l-.813-.255a72.893 72.893 0 0 1-3.742-1.282l-.688-.232-.686-.238-.715-.266c-1.891-.735-3.646-1.704-4.888-3.555-1.391-1.976 1.158-5.553 6.22-4.933l.308.043c5.32.645 9.95 3.159 14.382 5.977l2.706 1.727 1.11.692a71.545 71.545 0 0 0 3.087 1.802l.567.306.535.28.804.402.534.255.545.247c3.527 1.558 6.754 2.137 7.587-.493.841-2.327 3.556-3.206 6.658-2.59l.312.066c2.308.574 3.99-.634 4.012-2.757.085-5.296-5-10.683-9.992-12.508l-.87-.3-.56-.203-.55-.216c-1.997-.82-3.745-1.98-4.462-4.283-2.051-8.39 6.52-4.917 8.6-2.842l.071.073c2.143 2.122 3.767 4.517 6.676 5.587 2.05.71 4.24 1.994 6.071 1.682 3.403-.488 5.298-4.081 4.639-7.47-.77-3.236 1.004-4.104 3.897-3.813l.225.025c3.422.475 11.85-4.6 13.164-7.726 1.124-2.585 1.256-5.082.941-7.779l-.06-.478c-.562-5.063-5.469-10.767-8.954-17.543l-.257-.525-.249-.539-.234-.54-.223-.548c-1.854-4.693-2.467-10.09.646-10.184 5.812-.174 7.81 12.358 9.966 17.223l.102.222c2.009 4.312 3.433 8.641 5.522 11.922l.376.568c1.828 2.774 3.711 5.032 7.666 5.878l.74.148c3.682.683 7.123.512 8.681-1.524 1.432-2.18 2.182-10.058-.605-13.328l-.196-.216c-2.347-2.501-4.14-6.755-1.952-8.879 1.544-1.46 7.268-.732 7.448 4.856l.048 1.39.047 1.023.057.927c.225 3.093.746 4.674 2.564 7.574 2.646 3.824 4.131 3.394 5.48 2.6l.777-.473.248-.14.25-.126c.883-.409 1.845-.453 3.162.918l.184.197c1.276 1.44 3.162.613 4.33-.001 3.308-1.9 5.395-5.756 4.866-9.213-.524-3.135 1.118-6.27 3.222-6.077 1.776.204 4.192 2.832 4.066 6.308-.207 2.707 1.93 4.508 3.452 5.17 2.383 1.02 4.441-1.035 6.151-4.044l.313-.597.337-.676c1.479-3.055 3.2-7.708 3.715-13.197l.04-.478.054-.516c.447-3.926 1.872-9.065 4.896-8.588Zm-48.292 208.065c3.404-.027 2.3 6.29-.194 7.403-7.084 3.023-8.069-7.106.194-7.403Zm-45.674-10.584c.063.123.184.056.246.178 5.041 3.819-3.096 14.959-8.27 10.269-4.187-3.663 4.22-12.747 8.024-10.447Zm135.205 3.662c-.108.03-.075.13-.182.16-3.851 3.25-11.375-4.395-6.81-7.625 3.588-2.631 9.435 4.932 6.992 7.465Zm-129.081-77.91-.18.004c-.177.008-.344.028-.49.046-.423.052-.914.05-1.337.102l-.32.012-.636.07c-.106.01-.213.015-.32.012l-1.935.238-.514.017c-.52.02-1.057.05-1.556.112l-2.116.26-.249.01c-.42.032-.866.148-1.307.306-.408.175-.605.574-.673 1.02-.06.507 0 1 0 1.5-.015.377.091.739.144 1.17l.22 1.786.05.416.161 1.308.167 1.355.033.267c.035.26.076.5.155.772l.121.985.303 2.463.037.433c.018.29.026.58.061.868l.25 2.032.136.608.023.268c.015.259.009.494.037.725.038.308.129.547.167.855.053.43.045.869.09 1.238l.053.431.053.432.037.219c.043.208.1.389.122.574-.015.376.03.746.076 1.115l.234 1.91.21 1.709.637 5.187.068.554.043.354.085.693.454 3.695.038.182c.033.121.075.241.09.364-.007.439.046.87.053 1.431.106.362.167.855.348 1.333.129.547.605.926 1.096.928.49.002.922.012 1.405-.048l2.176-.267.603-.09c.4-.068.8-.145 1.203-.194l1.33-.163 1.813-.223.463-.058c.47-.06.956-.132 1.403-.234.416-.113.9-.173 1.307-.348.476-.12.937-.365 1.39-.67.454-.306.915-.55 1.376-.794.4-.237.665-.582.929-.927.22-.214.491-.498.703-.774.219-.214.49-.498.642-.766.294-.599.59-1.198.823-1.789.098-.2.197-.4.227-.653.128-.453.317-.914.438-1.429.083-.322.03-.753.106-1.138.09-.761 0-1.5-.091-2.239-.106-1.362-.333-2.71-.5-4.064l-.77-6.28-.16-1.294-.158-1.293-.045-.37-.07-.695c-.04-.472-.071-.954-.127-1.405-.106-.863-.204-1.663-.363-2.456l-.332-2.71-.025-.2-.051-.415-.355-1.394-.175-.466a14.596 14.596 0 0 0-.838-1.785c-.514-.687-1.028-1.374-1.715-1.977a9.062 9.062 0 0 0-1.82-1.368l-.667-.362a9.38 9.38 0 0 0-2.87-.925c-.37-.017-.809-.088-1.24-.098l-.184-.008Zm153.623 39.828c-.046.061.002.103-.044.164-.96 3.393-7.063 2.257-5.737-1.42 1.014-2.941 6.247-1.159 5.78 1.256Zm-123.505-43.333c-.462-.318-.945-.321-1.421-.263-.298.037-.588.135-.826.164-.535.066-1.011.124-1.495.121-.178.022-.29.098-.468.12l-1.071.132-.175-.003c-.223.012-.409.074-.599.098l-.535.066-.893.11-.478.042c-.32.02-.64.032-.958.071-.119.015-.23.09-.35.105-.23.091-.475.059-.713.088-.238.03-.484-.003-.662.019l-1.845.226-.176-.008a1.898 1.898 0 0 0-.657.11c-.111.077-.364-.017-.543.005l-1.13.139c-.476.058-.945.178-1.48.244-.357.044-.625.326-.825.663-.096.2-.126.453-.162.644.03.246 0 .5.03.746l.167 1.353.023.06c.023.039.054.076.06.117-.075.384.038.807.083 1.176.038.308.135.608.173.916.06.492.12.984.122 1.483l.15 1.23.004.075c-.001.1-.018.202.042.294.082.178.045.37.068.554l.038.308.01.077c.006.06.015.128.02.169l.023.184.03.121c.028.08.064.159.074.241.023.185-.006.438.024.684l.068.554.09.738.023.185.076.614.12.984.005.081c0 .116-.011.257.048.35a7.24 7.24 0 0 1 .197 1.6l.106.86.211 1.723.068.428c.053.285.115.57.15.856l.129 1.046.016.14c.02.18.029.329 0 .482l.136 1.107.135 1.108.025.126c.032.117.076.205.088.297l.098.8.106.86.016.23c.01.315-.016.657.068.947l.143 1.168.014.305c.035.411.127.84.175 1.233l.242 1.969.257 2.09.033.278c.03.277.054.555.043.837.008.062.075.116.082.178l.053.43.085.693.172 1.399.113.922.057.225c.069.31.111.654.154.998.082.177.112.423.194.6.314.587.827.836 1.474.694.417-.051.864.144 1.317-.1-.008-.061.06-.007.119-.014.119-.015.186.04.298-.037.29-.098.61.05.892-.11.112-.075.238-.028.357-.043l1.13-.139 1.786-.219.318-.069a7.822 7.822 0 0 1 1.348-.136l.952-.116 1.011-.125.54-.102c.55-.094 1.119-.164 1.654-.23l2.142-.263.171-.018c.38-.036.638-.034.833-.167.29-.098.565-.32.773-.595.156-.206.32-.351.289-.597l-.106-.861-.036-.167c-.03-.103-.069-.195-.084-.318.03-.253 0-.5-.03-.745-.113-.424-.114-.923-.167-1.354.007-.438-.158-.792-.44-1.132-.426-.51-1.028-.498-1.624-.425-.349.105-.892.11-1.249.153l-1.19.147-1.13.138-.256.059-.493.068a2.083 2.083 0 0 0-.256.06c-.357.043-.766.156-1.13.138-.424-.01-.833.102-1.257.092-.476.058-.952.117-1.436.114-.297.036-.61-.05-.886-.329-.35-.394-.478-.94-.553-1.555-.023-.185.066-.445-.016-.622-.224-.348-.098-.8-.203-1.162-.105-.362-.083-.677-.129-1.046-.045-.369-.09-.738-.203-1.161l-.31-2.522.004-.218c-.004-.281-.034-.527-.065-.773.044-.63.4-1.173.928-1.3.35-.106.64-.204 1.004-.186.484.003 1.012-.125 1.488-.183.17-.083.349-.105.528-.127.305.025.61.05.9-.048.349-.106.654-.08.929-.302.334-.228.72-.525.727-.963.074-.384.036-.691-.01-1.06.015-.377-.097-.8-.143-1.17l-.196-1.598-.045-.155c-.093-.309-.204-.609-.44-.847-.47-.38-1.013-.375-1.556-.371-.238.029-.528.127-.766.156-.476.059-.9.048-1.376.107-.179.022-.35.105-.587.134-.12.015-.246-.032-.425-.01a1.68 1.68 0 0 1-1.093-.053c-.432-.072-.7-.289-.805-.65a6.586 6.586 0 0 1-.188-1.039c-.157-.792-.248-1.53-.398-2.261-.015-.123-.03-.246.014-.377l-.151-1.23-.027-.214a4.177 4.177 0 0 0-.153-.763c-.053-.43-.04-.807-.092-1.237-.015-.123-.09-.239-.112-.423l.02-1.314-.009-.223c.007-.218.05-.422.022-.653.044-.13.208-.275.208-.275.253.094.29-.098.401-.174.111-.076.215-.214.334-.229l.714-.087.135-.007c.133.001.26.02.349.01.238-.03.401-.174.58-.196l1.844-.227.625-.077.625-.076.714-.088.359-.028c.24-.01.482-.013.72-.042.476-.058.944-.178 1.48-.244l1.19-.146.149-.046c.378-.138.614-.402.839-.762l.096-.2.051-.152c.075-.361-.134-.766.028-1.168.052-.07-.015-.123-.03-.246l-.112-.424-.015-.248c-.003-.166.004-.333-.016-.497l-.27-1.216-.018-.129c-.061-.384-.193-.75-.602-.981Zm14.23-2.058c-.682.02-1.364.042-1.984.055l-.368.045-.267.034a4.848 4.848 0 0 0-.768.156c-.483.122-1.02.314-1.495.498l-1.12.514-.197.107c-.247.149-.435.322-.662.501-.284.223-.636.392-.92.616a2.694 2.694 0 0 0-.384.424c-.276.285-.614.578-.882.925-.154.27-.177.587-.537.694l.007.062-.124.198c-.166.257-.326.498-.436.813-.246.533-.5 1.004-.608 1.645-.084.325-.284.726-.307 1.043-.116.58-.239 1.097-.232 1.662-.024.82.075 1.624.235 2.421.03.248.061.495.145.673.199.604.459 1.2.65 1.742a12.888 12.888 0 0 0 1.652 2.813c.368.457.789.845 1.148 1.24.636.614 1.271 1.227 1.892 1.716.689.544 1.378 1.087 2.06 1.57l.612.426.491.317c.335.21.679.42.995.632l1.494 1.01.469.32c.477.322.972.65 1.438 1.016.482.38.972.823 1.462 1.266.835.714 1.562 1.567 1.944 2.65.115.427.16.798.213 1.231.061.495-.062 1.013-.185 1.53a2.654 2.654 0 0 1-.768 1.351c-.284.224-.499.501-.913.678-.536.191-1.066.445-1.679.52-.49.06-.996-.003-1.448-.136-.575-.118-1.042-.375-1.456-.701-.559-.497-.949-1.14-1.331-1.721-.306-.465-.659-.799-1.218-.793a4.698 4.698 0 0 0-1.602.134c-.43.053-.805.036-1.173.081-.49.06-.98.12-1.456.305-.407.238-.675.585-.683 1.026-.024.317.03.75.136 1.114.176.92.658 1.804 1.193 2.617a13.75 13.75 0 0 0 1.531 1.823c.697.605 1.386 1.149 2.183 1.554.735.412 1.455.7 2.29.912.836.212 1.717.292 2.53.318.559-.006 1.11-.074 1.662-.142.43-.052.913-.175 1.396-.297l1.134-.39.18-.054c.239-.066.472-.114.656-.237.284-.224.637-.393.867-.547.567-.446 1.135-.893 1.641-1.332.223-.216.438-.493.599-.702.115-.077.23-.153.337-.292.161-.209.192-.464.415-.68.284-.223.422-.617.56-1.01.108-.14.154-.27.254-.471.1-.201.253-.471.345-.734.1-.2.193-.463.231-.656-.046-.372.108-.642.124-1.02l.043-.185.136-.35c.02-.06.036-.12.044-.184a8.023 8.023 0 0 0-.083-1.184c.03-.255.008-.44.046-.634.009-.44-.114-.928-.167-1.361-.114-.426-.221-.79-.39-1.146a6.627 6.627 0 0 0-.55-1.44c-.168-.356-.398-.705-.635-1.116-.39-.643-.903-1.27-1.416-1.899-.72-.791-1.5-1.575-2.327-2.227a43.44 43.44 0 0 0-2.734-1.989c-.337-.21-.682-.481-1.019-.691l-1.286-.848-.406-.27c-.403-.262-.795-.509-1.157-.794-.75-.536-1.44-1.08-2.198-1.678a7.518 7.518 0 0 1-1.5-1.574c-.306-.465-.681-.985-.872-1.527-.13-.55-.39-1.146-.29-1.849.016-.379.093-.765.232-1.16.138-.393.414-.678.622-1.018.092-.262.437-.493.728-.655.284-.223.706-.338 1.05-.568.469-.246 1.036-.19 1.534-.189.184-.022.368-.045.498.002.383.079.713.227 1.034.313.468.257.874.52 1.164.862.498.504.697 1.108 1.018 1.697.237.41.513.628.972.823.452.133.874.018 1.242-.027.62-.013 1.165-.143 1.71-.273.007.062.068.055.068.055l.614-.076.13-.016c.395-.052.822-.138 1.112-.513.053-.07.176-.085.222-.216.146-.332.23-.656.063-1.013-.008-.062.038-.193.03-.255l-.045-.371-.085-.236c-.095-.245-.21-.513-.29-.786-.282-.782-.741-1.48-1.2-2.177a9.119 9.119 0 0 0-2.282-2.358 8.75 8.75 0 0 0-2.857-1.471c-.782-.281-1.61-.431-2.49-.511Zm-45.508 12.112c.786-.097 1.64-.14 2.418.203.71.288 1.254.72 1.692 1.292.522.749.749 1.596.854 2.458l.25 2.032.05.416c.048.416.088.833.094 1.254l.506 4.126.068.263c.057.256.087.499.121.776.023.185-.022.315 0 .5l.522 4.249.386 3.14.34 2.771.031.29c.055.582.05 1.164-.092 1.718-.166.645-.528 1.19-1.02 1.688-.271.283-.604.574-1.012.749-.408.175-.823.289-1.239.402-.536.128-1.08.195-1.564.255-.491-.003-1.028.126-1.526.062-.688-.103-.96-.32-1.171-1.044-.084-.177-.046-.37-.076-.616-.076-.115-.09-.238-.106-.362l-.363-2.955-.181-1.478-.037-.381c-.031-.392-.048-.812-.1-1.228-.294-1.901-.536-3.871-.778-5.842l-.174-1.416-.12-.985-.086-.694-.172-1.4-.189-1.54-.025-.2-.05-.415-.114-.924-.09-.739-.091-.739-.22-1.785-.032-.266a9.976 9.976 0 0 1-.081-1.158c-.023-.185-.114-.424-.076-.616a1.94 1.94 0 0 1 .083-.823c-.015-.123.098-.2.204-.337a1.98 1.98 0 0 1 1.103-.51c.665-.082 1.39-.171 2.063-.191Zm62.443-14.245c-.427-.135-.823-.024-1.284.033l-2.019.247-.171.029a3.587 3.587 0 0 0-.62.194c-.447.18-.625.64-.68 1.146-.035.192-.012.377.01.562l.273 2.217.053.306c.042.203.093.406.118.611.068.554.071 1.054.132 1.547.103.363.148.732.128 1.047.06.493.121.986.24 1.471l.014.124.04.449c.02.307.034.625.07.913l.15 1.232.024.211c.042.424.073.849.273 1.253l.015.123-.034.196c-.04.393.09.798.085 1.174.046.37.156.793.21 1.224.037.308.025.685.07 1.055l.038.308.032.182c.038.18.092.35.109.488-.005.438.056.931.109 1.362.003.5.186 1.04.189 1.54l.022.185.059.352c.045.226.097.442.128.688.045.37.033.746.078 1.116l.053.431.045.37.046.37.11.424.025.325c.01.226.014.462.039.667.045.37.148.732.201 1.163.068.555.079 1.116.147 1.67.045.37.148.733.186 1.04.053.432.04.809.086 1.178l.068.555.083.677.008.056c.01.063.031.143.08.184l.03.246.057.462.057.462.068.554-.001.038c-.007.05-.029.103.024.147.08.178.037.308.002.5l.023.185.159 1.293.055.22c.067.293.104.599.146.944-.035.191-.012.376.003.5.153.293.126.547.099.8l.03.247.042.265c.047.255.108.482.136.713 0 0 .008.062-.05.069.241.533.375 1.142 1.09 1.242l.426.135.074-.016c.103-.028.218-.083.264-.088.246.095.412.012.642-.017.52-.063 1.046-.065 1.623-.136.173-.021.403-.05.569-.133.28-.097.569-.132.835-.352.107-.076.215-.152.258-.282.178-.46.24-.905.18-1.398-.053-.43-.049-.87-.167-1.355-.038-.308-.018-.623-.056-.93a5.82 5.82 0 0 0-.244-1.034c-.083-.677-.108-1.362-.184-1.978l-.234-1.91-.007-.129c.002-.12.023-.217.011-.309-.103-.362-.148-.732-.194-1.102l-.196-1.601-.028-.178c-.04-.229-.094-.432-.078-.685.035-.191.005-.438-.018-.623-.053-.43-.156-.793-.209-1.224-.03-.247-.003-.5-.033-.747-.191-.602-.217-1.286-.242-1.97.005-.44-.114-.925-.166-1.356-.111-.424-.156-.794-.21-1.225-.037-.308-.133-.609-.063-.993.035-.191-.053-.43-.075-.616-.241-.533-.137-1.108-.262-1.656-.11-.424-.106-.862-.16-1.293-.022-.185-.044-.37-.01-.562l-.06-.492-.022-.102c-.03-.11-.08-.246-.096-.384l-.325-2.649-.057-.462-.057-.462-.25-2.033-.026-.264c-.043-.532-.038-1.076-.208-1.645l-.007-.062-.016-.248c-.003-.166.003-.334-.018-.498-.083-.678-.224-1.348-.307-2.026l-.128-1.047-.22-1.786-.01-.106c-.017-.211-.02-.417-.188-.558l-.008-.061-.034-.134c-.15-.507-.464-.695-1.017-.8Zm19.207-.923c-.577-.112-1.207-.157-1.762-.089-.685.023-1.416.174-2.094.257l-.246.03-.314.04c-.305.04-.593.087-.91.172-.424.113-.84.286-1.265.399-.546.128-1.01.43-1.534.738-.294.158-.51.428-.865.594-.41.233-.75.52-1.082.865-.278.278-.611.624-.82.955-.333.346-.528.797-.792 1.196-.1.195-.209.33-.317.466-.134.444-.336.835-.538 1.226-.086.315-.18.57-.212.819a9.46 9.46 0 0 0-.283 1.255c-.047.128-.025.308-.003.489l.052.42-.035.087c-.035.078-.062.139-.051.23.051.42.103.84.086 1.21l.206 1.682.042.636c.052.634.13 1.266.207 1.897.074.601.21 1.195.283 1.796-.01.428-.027.797.086 1.21.128.533.125 1.022.192 1.563.076.113.03.24.052.42l.088.722.133 1.082.2 1.624.021.18.023.18.059.481.022.18.184 1.503.1.812.1.812.199 1.623.058.28c.061.367.064.718.112 1.103.08.66.162 1.322.366 1.968.19.526.31 1 .555 1.458.28.759.738 1.435 1.25 2.043a6.286 6.286 0 0 0 1.708 1.682c.552.42 1.096.781 1.702 1.134.4.195.798.39 1.19.525.707.157 1.352.322 2.052.42.446.067.946.066 1.385.073.684-.023 1.3-.098 1.978-.181.377.014.746-.031 1.116-.076.54-.189 1.155-.264 1.757-.46.532-.249 1.14-.384 1.603-.685.232-.15.533-.249.764-.4.348-.225.626-.503.912-.721.51-.43 1.02-.858 1.392-1.392.054-.068.108-.135.17-.143.108-.135.224-.21.271-.338.264-.399.466-.79.737-1.128.101-.196.21-.33.241-.579l.281-.767.057-.146c.075-.187.146-.342.178-.493.15-.812.37-1.57.39-2.428-.038-.3.049-.616-.05-.909-.037-.3-.005-.548-.042-.85l-.472-3.847-.05-.405-.142-1.158-.192-1.563-.044-.294a6.256 6.256 0 0 0-.325-1.186c-.197-.586-.618-.962-1.25-1.006-.369.045-.8.098-1.177.083l-.308.038-.353.044-.694.085-.554.068-.262.003a4.693 4.693 0 0 0-1.032.156c-.615.075-3.264.4-3.927.604-.362.105-.571.436-.727.7a1.678 1.678 0 0 0-.135.931l.17 1.383.191 1.563.027.175c.054.283.153.525.338.757.298.39.751.518 3.176.403.522.18.874.503 1.056.969.114.413.165.834.217 1.255.066.54.071 1.09.076 1.638.037.3.012.609-.02.857-.086.316-.296.647-.443.97-.102.195-.134.443-.304.586-.347.226-.687.512-1.027.798-.17.143-.402.293-.64.383-.486.121-1.04.19-1.587.317-.062.008-.185.023-.316-.022-.37.045-.731.15-1.047.129-.63-.045-1.153-.225-1.682-.465-1.136-.593-1.754-1.554-1.963-2.75-.158-.773-.192-1.562-.35-2.336l-.236-1.924-.035-.039c-.037-.06-.038-.147.005-.202l-.066-.54-.06-.496-.176-1.428-.288-2.345-.015-.125-.037-.296-.184-1.503-.038-.305-.103-.837-.036-.3-.056-.452-.055-.45-.155-1.263-.024-.436a12.79 12.79 0 0 0-.242-1.728c-.066-.541-.202-1.135-.207-1.683-.044-.361-.034-.79-.086-1.21-.044-.361-.096-.782-.078-1.15.024-.308.118-.564.15-.812.133-.444.335-.834.668-1.18.155-.264.372-.534.604-.685.347-.226.618-.564 1.126-.504l.054-.068.096-.057c.105-.055.228-.105.32-.116.247-.03.431-.053.67-.143.308-.038.67-.144.924-.114.323.083.616-.075.939.007.323.082.7.097 1.022.18.722.277 1.266.637 1.717 1.253.298.39.542.85.663 1.323.182.465.241.946.539 1.337.29.33.682.465 1.06.48.438.007.869-.046 1.3-.099l1.232-.15.243-.053c.407-.073.812-.098 1.159-.242.6-.196.988-.61.983-1.158a8.891 8.891 0 0 0-.221-1.804c-.114-.413-.227-.826-.402-1.232a.457.457 0 0 0-.16-.285c-.015-.12-.084-.173-.153-.226-.28-.759-.731-1.375-1.244-1.983a10.681 10.681 0 0 0-1.7-1.622l-.888-.623-.322-.185c-.646-.35-1.318-.581-1.99-.813a8.264 8.264 0 0 0-1.79-.33Zm32.03-5.331c-.563.006-1.188.02-1.743.089-.679.083-1.288.22-1.967.304-.37.045-.725.214-.942.49-.286.224-.502.5-.457.87l.045.37.002.318c.009.307.031.585.019.868.068.555.26 1.095.266 1.657-.032.254-.001.5.029.747.023.185.1.3.122.486.06.493.052.932.113 1.425l.416 3.39.076.491c.059.326.127.652.167.98.06.494.06.994.12 1.487l.288 2.343.034.277.034.277.257 2.096.027.116c.05.16.142.339.11.493-.078.385.091.74.006 1.063-.024.315.083.678-.072.947-.085.323-.379.484-.54.191a3.5 3.5 0 0 1-.83-1.15c-.17-.354-.345-.77-.584-1.179a19.889 19.889 0 0 0-.667-1.357c-.162-.293-.269-.655-.43-.948-.246-.47-.43-.948-.675-1.419-.1-.3-.261-.593-.422-.886-.177-.417-.353-.833-.591-1.242-.184-.478-.368-.956-.614-1.426l-.752-1.534-.232-.45c-.224-.46-.424-.94-.62-1.385-.352-.833-.774-1.72-1.127-2.552l-.99-1.943-.07-.18a2.866 2.866 0 0 0-.268-.53c-.176-.416-.353-.832-.653-1.233-.384-.579-.954-.634-1.586-.681a2.057 2.057 0 0 0-.864.106l-1.481.182-1.111.136-.74.091-.145.042c-.193.042-.385.036-.527.103-.177.084-.355.169-.463.307-.34.292-.618.577-.558 1.07.053.431.106.863.09 1.24l.053.431.017.186c.016.246.015.486.089.677.045.37.152.732.198 1.102-.009.44.052.932.112 1.425.068.555.198 1.102.204 1.665l.462 3.76.076.616.04.324.08.662.266 2.157.034.327c.038.428.057.826.155 1.214.053.431.16.794.144 1.171-.017.377.098.801.143 1.171l.137 1.11.025.447c.043.595.125 1.186.247 1.771l.068.555.106.863.011.092.027.216.174 1.418.021.366c.043.48.138.928.199 1.421l.022.185.032.263.067.539.128 1.047.08.648.08.647.143 1.17-.006.152c.009.199.073.391.097.588l.09.74.061.493.01.078.02.169.137 1.11.036.291.07.571.09.74.033.07c.028.097 0 .2.013.3l.076.616.211 1.726.047.088c.038.089.05.181.06.274.123.485.477.817.993.942.324.085.64.109 1.01.063l1.975-.242 1.11-.137.157-.047c.403-.142.691-.418.863-.829.202-.4.149-.831.096-1.263-.234-2.411-.59-4.807-.824-7.219l-.257-2.095-.182-1.48-.115-.692a30.747 30.747 0 0 1-.301-2.697l-.068-.555-.006-.046-.01-.077-.211-1.726v-.161c-.01-.32-.071-.635.049-.971.039-.193.008-.44.102-.701-.016-.123.1-.2.3-.1.14.109.278.217.354.332.293.34.513.735.72 1.14l.305.608c.103.202.21.4.327.589.323.586.522 1.187.79 1.842l1.013 2.128.73 1.35.148.368c.158.376.337.777.48 1.181.261.594.584 1.18.844 1.774l1.282 2.783.232.45c.224.46.424.94.62 1.385l.759 1.596.18.316c.184.323.379.663.604.964.146.17.346.27.546.37.47.256 1.018.126 1.519.127l1.358-.167 2.53-.31.18-.026c.354-.06.655-.166.9-.357.41-.238.603-.7.612-1.139.001-.5-.067-1.055-.128-1.548l-.234-1.911-.28-2.28-.057-.546c-.049-.536-.076-1.05-.139-1.558-.045-.37-.16-.793-.213-1.225l-.28-2.28-.552-4.5-.09-.723-.175-1.434-.28-2.28-.037-.434c-.017-.29-.025-.58-.06-.868-.046-.37-.145-.67-.183-.979l-.288-2.342-.068-.555-.01-.33c-.02-.43-.07-.824-.118-1.218-.052-.432-.167-.856-.22-1.287l-.379-3.082-.196-1.602-.019-.232c-.01-.23-.003-.454-.026-.639-.03-.246-.114-.424-.137-.609l-.182-1.479-.113-.924-.114-.925-.045-.37-.003-.157c-.027-.305-.166-.564-.31-.868-.177-.416-.524-.687-.963-.695ZM75.184 77.808c-.373-.017-.686-.04-1.045.066l-.183.022-.265.032c-.258.028-.5.046-.78.034l-.366.045-.078.045c-.07.036-.128.043-.22.054-.06.007-.114.076-.175.084-.26-.093-.435-.01-.618.013l-.366.045-.092.027-.098.016-.197.02c-.13.016-.25.047-.33.15-.275.284-.68.52-.688.958.015.123-.1.2-.092.261-.053.07-.107.138-.038.192.09.239-.009.438-.047.63-.039.692-.085 1.322-.124 2.013l-.04.692-.012.15c-.011.2-.008.389-.088.549-.03.253 0 .499-.031.753-.016.376-.222.713.014 1.121l-.054.07-.062.178c-.12.48.102.989-.176 1.411l.023.185.03.246-.038.295-.026.608c-.007.1-.018.2-.037.295-.077.384-.024.815-.032 1.253-.062 1.006-.193 1.958-.263 2.903l-.07.945-.017 1.376-.01.144c-.05.384-.238.746-.083 1.115 0 0 .008.062-.053.07 0 .499-.063 1.006-.124 1.513.007.061.068.054.076.115.007.062.015.123-.038.192-.1.2-.077.384-.047.63l-.185 1.521.017.148c.016.156.026.33-.003.475-.038.192-.137.391-.115.576-.008.437.045.868-.024 1.313l-.093.76v.063c-.015.104-.08.208-.023.253.137.108.03.246-.023.315l.038.307-.016.096c0 .093.034.183 0 .28-.016.377-.085.823-.093 1.26-.1.7-.2 1.398-.178 2.082 0 .5-.063 1.007-.056 1.568-.069.445-.077.883-.146 1.329-.031.253-.054.568-.078.883l-.024 1.314-.052.324a6.518 6.518 0 0 0-.102.943c0 .5-.124 1.014-.063 1.506-.023.315-.04.692-.124 1.014-.008.438-.077.884-.016 1.376.03.246-.001.499.09.737.114.423.655.794 1.082.742.252.031.435.009.618-.014.313.024.557-.006.801-.036.427-.052.847-.166 1.274-.219.366-.045.801-.036 1.16-.142.183-.023.35-.168.526-.252.237-.091.39-.36.55-.567.092-.26.245-.53.276-.783.03-.253.062-.507.039-.691.008-.438.146-.83.04-1.191-.008-.062.045-.13.038-.192.214-.276.107-.638.077-.884-.007-.56.246-1.028.567-1.442.32-.414.93-.49 1.48-.557.122-.015.313.024.496.002.244-.03.541-.13.786-.16.183-.022.373.017.556-.005.306-.037.664-.144.97-.181.67-.083 1.281-.158 1.975-.056.26.093.518.186.732.41.434.508.578 1.177.837 1.77l.622 2.046.061.138c.17.365.401.707.808.879.259.093.518.186.83.21.443.07.855-.105 1.29-.096.618-.014 1.274-.219 1.884-.294.061-.007.191.04.245-.03.297-.099.663-.144.831-.29.283-.221.49-.559.444-.928-.038-.307-.015-.622-.174-.915-.19-.538-.266-1.153-.525-1.746-.174-.415-.296-.9-.41-1.322l-.319-1.085-.123-.353c-.17-.462-.353-.9-.462-1.385-.175-.416-.296-.9-.418-1.385-.197-.6-.456-1.192-.592-1.8a2.242 2.242 0 0 0-.206-.661c-.083-.177-.167-.354-.19-.539-.09-.238-.121-.484-.212-.723-.084-.177-.168-.354-.198-.6-.022-.184-.175-.415-.258-.592l-.502-1.561-.2-.616c-.133-.419-.268-.846-.4-1.246l-.304-.961-.143-.415c-.236-.683-.454-1.333-.586-1.993l-.281-.777-.022-.043c-.02-.02-.05-.031-.055-.072-.076-.116-.083-.177-.098-.3-.084-.177-.107-.362-.122-.485-.084-.177-.16-.292-.182-.477-.168-.354-.282-.777-.388-1.138-.19-.539-.258-1.092-.501-1.561-.175-.416-.22-.785-.396-1.2l-.615-1.985-.127-.427c-.17-.56-.344-1.088-.557-1.611-.106-.362-.151-.73-.38-1.077l-.007-.062-.297-.9-.099-.351c-.106-.341-.226-.654-.311-.972-.182-.477-.304-.961-.486-1.438-.03-.246-.122-.484-.213-.723-.099-.3-.144-.669-.243-.969-.19-.538-.44-1.07-.631-1.608-.266-.654-.746-1.032-1.433-1.072Zm32.03-3.886c-.564.007-1.188.02-1.744.09-.678.082-1.288.22-1.967.303-.37.046-.725.214-.942.491-.285.223-.502.5-.457.87l.046.37.002.317c.008.307.03.586.018.869.068.554.26 1.094.266 1.656-.031.254 0 .5.03.747.022.185.099.301.122.486.06.493.051.932.112 1.425l.416 3.39.077.491c.058.327.126.652.167.98.06.494.059.995.12 1.488l.287 2.342.068.555.258 2.095.026.116c.05.16.142.339.11.493-.077.385.092.74.006 1.063-.024.316.083.678-.071.947-.086.323-.38.485-.54.192a3.5 3.5 0 0 1-.83-1.15c-.17-.354-.346-.77-.584-1.18-.177-.416-.422-.886-.668-1.356-.161-.293-.268-.656-.43-.949-.245-.47-.43-.948-.675-1.418-.1-.301-.26-.594-.422-.887-.176-.416-.353-.833-.59-1.241-.185-.478-.369-.956-.614-1.427l-.752-1.534-.233-.45c-.224-.46-.423-.94-.62-1.385-.352-.832-.774-1.72-1.127-2.552l-.99-1.943-.07-.179a2.866 2.866 0 0 0-.268-.53c-.176-.416-.352-.833-.652-1.234-.384-.578-.955-.633-1.587-.68a2.057 2.057 0 0 0-.864.105l-1.48.182-.556.068-.556.068-.74.091-.145.043c-.193.041-.384.035-.526.102-.178.085-.355.17-.464.308-.34.292-.618.576-.557 1.069.053.431.106.863.09 1.24l.052.432.017.185c.016.246.016.486.09.678.045.37.152.732.197 1.102-.009.439.052.932.112 1.425.069.554.198 1.102.205 1.664l.461 3.76.076.616.04.324.081.662.265 2.157.034.327c.039.428.057.826.155 1.214.053.432.16.794.144 1.171-.016.378.098.802.144 1.171l.136 1.11.025.447c.043.596.126 1.186.248 1.772l.068.555.106.862.01.092.027.217.174 1.417.021.367c.043.479.138.928.199 1.42l.023.186.032.262.066.539.129 1.048.08.647.079.647.143 1.171-.005.15c.008.2.072.392.096.59l.091.74.06.492.01.078.02.169.137 1.11.036.292.07.57.09.74.034.071c.028.097 0 .2.012.299l.076.616.212 1.726.047.088c.037.09.049.182.06.274.122.486.476.818.993.942.323.085.64.109 1.01.064l1.974-.243 1.11-.136.157-.047c.404-.143.691-.419.864-.83.201-.4.148-.83.095-1.262-.233-2.412-.59-4.808-.823-7.22l-.258-2.095-.181-1.48-.115-.691a30.747 30.747 0 0 1-.302-2.698l-.068-.555-.005-.045-.01-.078-.212-1.726v-.16c-.01-.321-.07-.636.05-.972.038-.193.008-.44.101-.7-.015-.124.1-.2.3-.1.14.108.278.216.355.332.584.679.883 1.58 1.352 2.336.322.586.521 1.187.79 1.843l1.013 2.128.729 1.35.149.367c.158.377.336.777.48 1.182.26.593.583 1.18.844 1.773l1.281 2.783.233.45c.223.46.423.94.619 1.385l.76 1.596.18.316c.184.324.378.663.603.964.146.17.346.27.547.371.47.255 1.017.125 1.518.126l1.358-.166 2.53-.31.18-.027c.354-.06.655-.166.9-.357.41-.238.604-.7.612-1.139.001-.5-.067-1.055-.127-1.548l-.235-1.91-.28-2.281-.057-.546c-.048-.536-.076-1.049-.138-1.557-.046-.37-.16-.794-.214-1.226l-.28-2.28-.552-4.5-.089-.723-.176-1.434-.28-2.28-.037-.434c-.017-.29-.025-.58-.06-.868-.046-.37-.145-.67-.183-.979-.098-.801-.19-1.54-.287-2.342l-.069-.555-.01-.33c-.02-.43-.069-.824-.117-1.218-.053-.432-.168-.855-.22-1.287l-.38-3.082-.196-1.602-.019-.232c-.01-.23-.002-.454-.025-.639-.03-.246-.115-.424-.138-.608l-.181-1.48-.114-.924-.113-.925-.046-.37-.003-.157c-.027-.305-.166-.564-.31-.868-.177-.416-.523-.686-.963-.695Zm28.652-3.456c-.379-.078-.69-.102-.992-.065-1.159.08-2.31.22-3.453.424-.485.06-.894.234-1.151.64-.258.407-.387.86-.508 1.375-.03.254.068.554-.091.76-.151.27-.174.585-.205.838-.03.254-.053.569-.144.83-.098.7-.318 1.413-.477 2.12-.16.707-.258 1.406-.364 2.044a41.456 41.456 0 0 0-.538 2.627c-.114.577-.228 1.153-.402 1.736a9.2 9.2 0 0 1-.44 1.429c-.144.33-.787.596-1.067.318-.41-.324-.644-.733-.818-1.149-.81-1.587-1.566-3.243-2.316-4.838l-1.044-1.996-.2-.431c-.269-.58-.539-1.177-.8-1.695-.332-.709-.718-1.349-1.051-2.058-.318-.585-.787-.902-1.4-.89-.803-.026-1.583.132-2.37.229l-.546.067-.275.013a5.26 5.26 0 0 0-1.345.31c-.41.176-.546.567-.56.944.044.37.143.67.302.963.098.3.318.585.416.886.242.47.431 1.009.674 1.479.484.94.976 1.941 1.468 2.943l1.24 2.596.1.176c.073.116.156.23.211.349l.681 1.54.197.399c.205.4.428.805.62 1.25.394.701.735 1.472 1.075 2.242l.969 1.88.216.498c.295.661.621 1.311.942 1.921.31.524.568 1.118.817 1.65l1.249 2.657.083.227c.17.448.35.862.356 1.344l.083.676.068.43c.054.284.116.568.151.855.038.308.008.562.106.862l.204 1.662.052.498c.042.49.065.956.122 1.417.053.43.158.793.211 1.224l.227 1.846.295 2.4.113.923.021.138c.091.502.345.963.872 1.127.318.086.629.11.94.135l1.453-.179.406-.05c.548-.072 1.118-.162 1.639-.326.477-.121.961-.68.908-1.111-.037-.808-.075-1.615-.173-2.415-.053-.431-.167-.854-.22-1.285-.173-1.416-.279-2.777-.453-4.193-.068-.553-.189-1.038-.257-1.592s-.083-1.177-.15-1.731c-.076-.615-.212-1.223-.288-1.839a5.51 5.51 0 0 1 0-1c.008-.438.076-.883.084-1.322l.25-.967.025-.26c.056-.34.193-.667.248-1.023.045-.63.22-1.214.386-1.86l.22-1.213.083-.301c.066-.307.096-.627.198-.92.235-1.092.462-2.244.697-3.335l.372-1.483.066-.314c.082-.423.146-.861.297-1.23.053-.069.053-.069.046-.13.03-.254.008-.438.106-.638l.349-1.667.07-.321c.092-.443.17-.933.218-1.339.205-.837.341-1.728.546-2.565.106-.638.265-1.345.424-2.052.069-.445.137-.891.266-1.344.181-.522.242-1.03.295-1.598.069-.446-.25-1.032-.635-1.172Zm17.446-1.938c-.682-.104-1.35-.085-1.956-.073l-.42.052-.36.044-.315.039-.643.079-1.739.213-.534.03c-.526.038-1.032.1-1.571.166-.36.044-.787.034-1.147.078-.539.066-1.018.125-1.55.253-.48.06-.967.056-1.439.177-.36.044-.644.204-.861.419-.45.306-.516.752-.456 1.246.024.686.175 1.419.258 2.098.038.308.023.686.121.987.03.247 0 .501.031.748l.212 1.728.113.842c.122.851.264 1.726.372 2.606.053.432.053.933.106 1.365.015.123.09.239.113.424.008.062.083.178.038.309-.022.316.016.624.061.994.076.617.212 1.227.228 1.851l.197 1.605.22 1.79.204 1.665.242 1.975.932 7.59.076.616.009.151c.003.161-.008.35.014.536.106.362.151.733.197 1.103l.174 1.419.114.926.003.074c-.001.1-.018.203.042.296l.144 1.172.036.34c.043.462.074.95.176 1.388.106.363.024.686.129 1.049.038.308.076.617.174.918.15.232.248.533.518.75.33.21.637.236 1.004.253l1.499-.184.839-.103.285.011c.291.008.6.006.869-.027.487.003.966-.056 1.446-.115l.12-.015.238-.045c.157-.038.314-.085.474-.105.36-.044.786-.034 1.146-.078.42-.052.832-.165 1.191-.209l1.2-.147.007.062.14-.055c.151-.048.33-.081.504-.15.839-.103 1.596-.384 2.344-.726l1.139-.64.034-.018c.046-.038.094-.124.19-.136.337-.23.682-.397.943-.742.367-.483.929-.866 1.235-1.342l.726-1.028.086-.13a3.31 3.31 0 0 0 .25-.6c.202-.338.404-.676.478-1.061.052-.07.097-.2.09-.262.09-.261.186-.461.216-.715a3.83 3.83 0 0 0 .216-1.217c.074-.385.149-.77.103-1.14.007-.44-.046-.871-.047-1.372l-.227-1.851-.055-.448-.112-.91-.128-1.049-.07-.272c-.062-.272-.106-.536-.18-.762l-.3-.965-.146-.358c-.155-.357-.335-.71-.516-1.064l-.675-1.045-.879-1.207-.082-.139c-.226-.413-.247-.81-.032-1.288l.269-.784.064-.121c.09-.162.197-.325.227-.479l.396-1.239.093-.318c.107-.43.15-.876.197-1.283.036-.694.013-1.38-.003-2.004-.068-.555-.069-1.056-.25-1.535-.007-.062.053-.07.045-.131-.045-.37.03-.755-.136-1.11l-.023-.186-.068-.555-.046-.245c-.038-.162-.084-.324-.105-.488-.038-.309-.075-.617-.173-.919-.18-.478-.429-1.012-.61-1.49l-.48-.944-.178-.259c-.186-.256-.387-.501-.55-.716-.368-.519-.796-1.03-1.269-1.41-.742-.598-1.477-1.134-2.317-1.532-.968-.445-1.912-.705-2.91-.896ZM74.985 97.3c.026-.204.28-.325.458-.234.259.093.411.324.502.562.091.239.175.416.327.647.138.108.107.361.19.538.13.546.312 1.023.502 1.561.136.608.334 1.208.524 1.746.099.3.259.593.357.893 0 0 .008.061.069.054.06.492.182.976.425 1.446.076.115.038.307.06.492l.061.492.02.12c.066.55-.294.979-.8 1.1a8.595 8.595 0 0 1-2.502.306c-.373-.016-.914-.387-.96-.756-.038-.307-.075-.615-.044-.868.045-.13-.03-.246.015-.377-.022-.184.085-.322.062-.507-.045-.369.153-.768.047-1.129l-.023-.184.062-.225c.09-.453.002-.916.055-1.35.023-.315.039-.692.245-1.03.046-.13.016-.376-.007-.56a.866.866 0 0 1-.068-.554c.02-.096.032-.187.04-.276l.036-.523.04-.276c.03-.254.123-.515.222-.714.035-.098.073-.161.084-.239Zm104.02-32.14c-.684.02-1.39-.144-2.112.07-.537.192-1.105.136-1.65.266-.553.067-1.09.259-1.636.389l-.476.184-.105.056c-.14.082-.277.179-.425.197-.238.092-.345.23-.522.315-.476.184-.876.484-1.221.715l-.194.165-.342.325c-.06.054-.123.109-.194.165-.17.146-.346.23-.5.5-.046.132-.146.332-.262.41-.291.16-.392.361-.484.624-.1.2-.261.408-.43.555-.054.07-.108.138-.154.27.007.061-.1.2-.154.27-.208.339-.423.616-.5 1.003-.085.324-.109.64-.27.849-.154.27-.131.455-.101.703.008.061-.046.13-.1.2-.254.47-.255.973-.317 1.483.015.626-.032 1.26.044 1.877.1.302.083.68.121.99.053.433.038.811.144 1.175.061.495.183.982.244 1.476.023.186.107.364.007.564-.054.07.023.186.03.248l.107.866.076.618.023.185c.026.185.06.37.13.55.014.123-.032.254-.024.316.045.371.09.742.198 1.106.053.433.037.811.16 1.298.183.48.005 1.067.135 1.616.077.116-.023.316.053.432.107.364.153.735.137 1.114-.054.069.023.185.03.247.038.31.13.549.168.858-.023.317.015.626.053.935.015.124.099.302.122.487.1.302-.047.634.052.935.115.426.114.928.167 1.36.008.063.084.179.092.24l.106.866.01.366c.017.357.058.693.104 1.064l.113.928.067.321c.052.323.068.65.154.97.153.734.42 1.392.75 2.042.604 1.37 1.493 2.516 2.612 3.508.56.496 1.235.916 1.902 1.273.729.35 1.52.692 2.348.842.575.117 1.143.173 1.711.229.315.024.568.056.875.018.307-.038.637.11.929-.051.177-.085.369-.045.56-.006l.185-.023.473-.074c.307-.057.604-.12.932-.161.122-.015.191.04.307-.038.307-.038.606-.137.906-.237l1.612-.574.044-.015a.267.267 0 0 0 .072-.062c.169-.146.338-.293.514-.377.246-.03.415-.177.576-.385 0 0 .062-.007.054-.07.346-.23.753-.468 1.084-.823.338-.292.676-.585 1.006-.94.27-.346.47-.747.677-1.087.254-.47.516-.879.708-1.342.193-.463.324-.919.455-1.374.139-.394.339-.795.286-1.228-.023-.185.07-.448.17-.648l-.016-.124-.038-.31-.005-.344c-.01-.47-.031-.969-.092-1.464.023-.316-.084-.68-.13-1.05l-.09-.743-.008-.062-.036-.373c-.029-.376-.041-.763-.092-1.18-.054-.433-.237-.913-.106-1.368l-.023-.186-.066-.185c-.084-.32-.052-.69-.147-1.044l-.122-.99-.022-.185.026-.107c.027-.205-.084-.36-.11-.573-.084-.178-.053-.433-.083-.68l-.038-.31-.029-.23-.078-.635-.068-.557-.037-.108c-.034-.147-.013-.3-.031-.448l-.069-.557-.02-.08c-.025-.071-.066-.113-.071-.16.023-.316-.015-.625-.053-.935l-.129-1.05-.16-1.3-.047-.386-.097-.788-.053-.433-.017-.14-.059-.479-.068-.556-.027-.137c-.034-.134-.084-.258-.095-.35-.046-.371-.022-.688-.068-1.06l-.16-1.298-.045-.37-.033-.185a4.267 4.267 0 0 0-.18-.543c-.046-.37-.092-.742-.26-1.098-.26-.595-.39-1.144-.712-1.733-.39-.642-.85-1.339-1.356-1.905-.651-.736-1.41-1.333-2.223-1.86-.882-.583-1.864-.964-2.892-1.215a7.016 7.016 0 0 0-2.088-.246Zm-25.39 26.967c.55-.009 1.142.005 1.715.269.637.235 1.23.6 1.665 1.173.368.519.683 1.107.767 1.785.038.309.135.61.173.919l.28 2.283.034.334c.036.446.033.898-.009 1.354-.03.254-.171.585-.253.908l-.606 1.014-.09.095c-.1.089-.228.163-.352.272a.837.837 0 0 1-.217.215c-.509.313-1.025.564-1.625.638-.831.164-1.73.275-2.57.378-.3.037-.607.012-.974-.006-.427-.01-.915-.514-1.035-1-.038-.309-.084-.679-.19-1.042-.097-.3-.082-.679-.12-.987-.053-.432-.166-.857-.22-1.288-.037-.309-.015-.625-.053-.933l-.046-.37-.135-.61-.007-.13c.003-.12.025-.217.014-.31-.053-.432-.046-.87-.16-1.295-.12-.487-.12-.988-.181-1.481-.06-.494.126-.955.44-1.37.105-.138.277-.222.39-.298.231-.091.471-.12.703-.212l.78-.095 1.678-.207ZM178.36 71.59l.185.012c.183.02.36.058.512.077.568.056.96.196 1.427.452a3.922 3.922 0 0 1 1.426 1.457c.237.41.36.898.42 1.392.152.735.251 1.539.342 2.28.046.372.16.797.206 1.168.015.124-.039.193-.023.317.068.557.075 1.12.266 1.662.1.302.014.626.045.873l.311 2.536.062-.008v.377c.007.25.024.499.013.751.038.31.145.673.19 1.044.054.433.046.873.107 1.368.037.31.137.61.175.92l.144 1.175.029.242c.027.25.049.517.031.755.023.185.107.363.122.487l.114.928.003.263c.013.35.065.695.157 1.035l.106.866.056.263c.06.36.068.751.111 1.097l-.002 1.507v.094a1.262 1.262 0 0 1-.077.292c-.247.533-.493 1.065-.87 1.55-.1.201-.33.355-.56.509l-.285.223-.087.095a.983.983 0 0 1-.558.235l-.062.008-.131.091c-.318.173-.704.09-1.013.238a1.667 1.667 0 0 1-.441.059h-.45a2.224 2.224 0 0 0-.222.015c-.43.052-.875-.018-1.258-.097-.377-.016-.714-.226-.982-.381a3.408 3.408 0 0 1-1.633-1.62c-.33-.65-.482-1.385-.504-2.073l-.106-.865-.35-2.845-.016-.186c-.017-.25-.018-.5-.097-.741l-.076-.619-.03-.242-.1-.81-.068-.556-.102-.834-.103-.835-.273-2.226-.034-.278-.095-.774-.046-.37-.104-.85-.207-1.686-.16-1.299-.04-.335-.134-1.087-.197-1.608-.01-.119c-.006-.168 0-.369-.074-.56-.107-.364-.022-.689.001-1.005-.015-.124-.03-.248.016-.379.139-.394.155-.772.416-1.18.147-.333.423-.618.63-.957.278-.285.616-.578 1.038-.692.422-.115.837-.291 1.26-.406l1.473-.181.186-.01Zm42.964 24.671c-2.978 3.616-7.333-1.024-3.9-4.4 3.302-3.63 6.23 1.47 3.9 4.4ZM32.226 91.378c.193 3.675-9.202 4.26-9.94 1.42.034-.089-.067-.111-.032-.199-.556-4.138 9.824-5.842 9.972-1.22ZM151.185 74.99c.3-.036.6-.073.914.013l.742.097.203.036c.387.089.678.268 1.012.441.6.428 1.035 1 1.298 1.657.24.472.369 1.02.437 1.575.06.494.069 1.057.19 1.543.105.363.09.74.076 1.118l.045.37.003.181c-.02.237-.119.46-.136.712-.015.378-.277.723-.41 1.116-.203.338-.465.683-.802.912-.336.23-.673.459-.95.68l-.3.037-.208.033c-.269.051-.502.13-.736.209l-.12.014-.147-.006c-.193.008-.38.071-.572.095-.72.088-1.379.169-2.046.188-.667.02-1.124-.238-1.342-1.025a2.423 2.423 0 0 1-.114-.926c.03-.254-.128-.548-.166-.856l-.182-1.481-.026-.403c-.05-.527-.148-1.016-.209-1.51l-.151-1.234-.167-1.357.004-.184c.003-.3-.005-.568.107-.895.037-.192.142-.33.307-.476a4.423 4.423 0 0 1 1.52-.5l1.034-.002.298-.052c.198-.043.394-.095.594-.12ZM20.692 52.823c-.017.102-.117.083-.134.187-2.17 2.563-10.098-1.916-7.96-5.548 2.606-4.605 10.8 1.411 8.094 5.36Zm186.67-6.866c2.276.779-.831 4.154-2.47 3.8-4.002-.75-.127-4.792 2.47-3.8Zm29.857-21.625c.011.168.21.067.22.235 4.404 5.036-12.747 21.08-16.82 14.833-3.373-4.87 12.94-18.056 16.6-15.068Zm-128.59 3.547c2.679.333 3.846 4.579.61 4.95-3.73.466-3.99-4.875-.963-4.935l-.064.04c-.031.02-.02.026.062.012l.355-.067Zm82.42-14.78c5.93 1.334 2.445 14.031-2.416 13.78-.124-.083-.207.04-.33-.044-6.837-1.053-4.667-15.539 2.745-13.736Zm19.506-10.85c1.993 1.478-1.387 4.838-3.064 3.356-.047-.014-.032-.059-.08-.073-1.06-1.15 1.58-4.486 3.144-3.283Z"/></svg>