<svg xmlns="http://www.w3.org/2000/svg" width="39" height="50"><path fill="#222629" fill-rule="evenodd" d="M38.46 28.024c.452.626.361 1.251 0 1.787-.27.447-.54.804-.902 1.161l-6.224 6.7c-1.534 1.609-2.977 3.217-4.42 4.825l-3.61 3.841c-.54.536-.992 1.072-1.443 1.52-.36.356-.631.625-.992.893-.812.536-1.714.446-2.436-.18a3.913 3.913 0 0 1-.631-.535c-1.083-1.072-2.075-2.234-3.068-3.306l-1.894-1.876c-.18-.178-.36-.446-.541-.625a1.678 1.678 0 0 0-.542-.625c-.45-.447-1.082-.805-1.353-1.52-.09-.267-.45-.446-.721-.714-.452-.447-.812-.983-1.263-1.43-.542-.446-.993-.982-1.444-1.518v-.09c-1.082-.803-1.804-1.965-2.797-2.858-.54-.536-1.082-1.162-1.623-1.787l-.542-.536c-.45-.536-.902-1.072-1.172-1.697 0-.179-.09-.358-.09-.447 0-.804.27-1.34.721-1.787.632-.625 1.263-1.25 1.895-1.787l1.894-1.608c.27-.268.632-.357.992-.446.542 0 .993.268 1.444.536.09 0 .09.09.18.178.902.268 1.353 1.072 1.985 1.698l4.06 4.288v.09c.16.318.39.58.644.822.162-.612.074-1.3-.013-1.906 0-.447.09-.894.09-1.34V2.55c0-1.697.993-2.412 2.346-2.412 1.173-.089 2.255 0 3.338 0 .45 0 .902-.089 1.263-.089.36.09.631.09.902.179.631.178 1.173.536 1.353 1.25.09.536.18 1.072.18 1.52l.001 28.77 2.255-2.405c.782-.834 1.523-1.667 2.279-2.501l1.149-1.25a12.255 12.255 0 0 0 1.534-1.52c.721-.714 1.533-.804 2.435-.536.451.18.812.536 1.173.894.451.357.812.804 1.263 1.072.632.536 1.173.983 1.714 1.519.27.357.451.625.632.982Z"/></svg>