<svg xmlns="http://www.w3.org/2000/svg" width="648" height="736"><path fill="#222629" fill-rule="evenodd" d="M464.927.678c23.479 5.54 18.023 57.951 21.435 79.776l.167 1c3.418 19.453 4.474 38.347 9.321 53.747l.896 2.68c4.346 13.091 9.467 24.17 24.408 31.809l2.804 1.386c14.024 6.696 28 9.706 36.434 3.214 8.08-7.21 19.552-37.997 11.896-54.105l-.552-1.075c-6.72-12.555-9.336-31.542 1.717-37.708 7.76-4.2 29.918 4.868 24.633 27.474l-1.298 5.623-.916 4.157-.767 3.78c-2.422 12.643-2.033 19.546 2.137 33.13 6.496 18.179 12.912 18.047 19.173 16.315l3.62-1.066 1.142-.296 1.14-.236c3.978-.69 7.88.162 11.688 7.077l.522.988c3.567 7.147 12.015 5.852 17.36 4.645 15.298-4.068 27.806-17.293 29.398-31.724 1.273-13.136 11.224-23.95 19.447-20.913 6.898 2.725 13.757 15.86 9.516 29.667-3.74 10.634 2.888 20.15 8.28 24.438 8.453 6.657 18.91.623 29-9.609l1.895-2.06 2.076-2.35c9.211-10.665 21.107-27.475 29.07-48.938l.677-1.873.77-2.01c6.009-15.27 17.242-34.35 28.852-29.189l.743.363c10.053 4.722 3.655 18.154-4.28 32.022l-4.586 7.896a306.573 306.573 0 0 0-3.235 5.679l-1.483 2.747c-16.063 29.936-30.991 46.156-30.926 83.461-.05 13.334 5.155 14.188 12.122 13.477l5.211-.625c2.465-.271 5.027-.436 7.568-.12 14.297 2.277 20.013 13.222 15.772 27.028l-.89 2.827-.601 2.021-.586 2.1c-3.403 12.656-4.552 26.11 7.275 29.367l.942.232c16.628 4.197 36.408 5.849 50.104-7.644l3.954-3.803 4.122-4.056c9.925-9.916 17.033-18.265 22.28-27.754 6.707-11.304 21.502-20.151 33.699-16.176 11.605 4.109 19.057 17.11 13.125 26.403-3.56 5.577-16.657 11.766-29.84 18.545l-1.317.68c-8.346 4.32-16.599 8.875-22.358 13.663-23.14 19.047-29.66 49.685-18.931 64.53l.602.793c12.106 15.918 12.973 22.713 3.161 38.774l-1.54 2.463c-1.825 2.859-3.652 5.718-4.745 9.025-2.855 8.305.432 18.058 8.35 25.231l.934.816c11.197 10.32 38.057 12.82 65.048 7.947 12.147-2.193 30.758-7.58 49.69-13.213l2.525-.753 2.526-.753c21.466-6.408 42.644-12.795 54.593-14.87 6.668-.893 14.755 1.564 17.133 8.98 1.83 5.093.51 12.733-2.503 15.86-7.333 7.885-29.57 11.111-52.604 13.357l-10.218.943-13.956 1.24-5.323.508c-6.96.692-13.333 1.452-18.607 2.414l-3.432.666-2.948.635-3.236.766-2.543.654c-18.784 4.998-49.115 16.853-70.256 45.45l-1.42 1.966c-9.28 12.217-8.743 30.904.764 42.727 6.972 10.746 13.685 14.167 20.356 16.426l.635.212c.106.035.212.07.317.103-1.546 17.607 1.184 25.868-11.643 35.882l-1.378 1.11c-11.553 9.34-13.74 15.952-1.992 36.547 8.51 15.366 6.91 23.141-6.313 31.59l-1.068.668c-3.744 2.682-9.225 3.307-13.838 4.962-15.619 5.36-19.31 21.49-8.752 34.403l3.036 3.665 2.114 2.48 2.203 2.508c9.385 10.503.769 26.336-17.297 19.927l-11.785-4.094c-15.121-5.764-36.216 8.18-35.615 23.95.599 7.82 3.891 13.805 4.764 22.784 1.008 9.562-1.5 17.47-8.305 17.784-6.806.314-11.01-4.243-12.885-6.879-6.216-7.775-13.57-9.784-21.608-6.745-8.038 3.039-12.188 11.931-10.86 20.195l.813 4.886.45 2.486.476 2.376.503 2.206c2.385 9.758 6.581 17.378 19.542 29.266l1.396 1.267c19.65 16.976 15.418 46.687 4.726 41.149-23.482-9.38-23.27-37.572-36.202-49.946-7.678-8.668-22.937-15.011-37.142-14.25-14.089.692-19.701 9.196-23.737 19.154l-.27.673-.133.338-1.125 2.985-1.076 2.988c-4.653 21.426-15.524 15.107-25.62 8.472l-.817-.539c-3.26-2.15-6.417-4.257-9.236-5.382-11.288-4.509-17.96 22.745-18.653 35.772l-.054 1.492c-.495 11.125 1.244 21.131 7.922 36.144 7.27 14.877 11.575 38.376 11.261 47.626-1.046 8.802-7.844 25.02-14.011 22.743-5.436-1.832-11.656-17.559-13.99-27.432-1.191-5.036-2.208-17.59-3.12-30.586l-.106-1.531-.159-2.298-.104-1.53c-.728-10.693-1.39-21.027-2.027-27.05-.372-12.154-2.57-21.447-7.553-31.944-4.847-9.92-18.231-13.627-28.37-8.888-6.42 3.204-11.423 2.732-15.766-2.321l-.588-.718c-7.953-9.827-19.65-16.974-32.3-12.283-12.056 4.559-18.357 9.652-24.747 19.66-6.83 10.703-7.952 25.388-8.482 40.075l-.36 10.763c-.27 7.097-.7 13.959-1.898 20.113-1.778 8.356-7.39 16.353-16.572 17.204-9.018.835-22.5-12.088-12.243-39.912l.573-1.505c5.428-14.074 11.7-74.836-18.306-66.836-6.53 1.475-12.786 4.111-19.316 5.586-16.9 2.593-32.988-15.188-34.685-27.653-1.102-12.598-9.418-18.675-23.123-21.086-14.297-2.277-45.166 12.648-58.815 31.638-13.646 18.99-20.444 35.208-27.61 47.228-7.164 12.018-15.928 22.563-29.627 28.104l-1.51.455-1.362.37-1.6.395-2.713.571-2.016.343-1.62.219-1.66.168c-12.63 1.048-26.95-3.314-6.72-36.115 5.536-8.674 14.059-16.645 22.385-23.59l5.166-4.216 4.85-3.898 3.648-3.01c16.433-13.796 40.025-37.16 33.418-62.96l-.331-2.804c-2.282-17.34-8.225-26.896-26.408-30.925-8.679-2.323-23.754-2.59-30.745-8.354-12.872-10.76 1.104-25.278-9.187-34.249l-2.303-1.816-.817-.612-.988-.701-1.14-.758-1.252-.77c-6.623-3.916-18.722-8.567-37.183-4.828-20.186 4.559-42.969 21.942-70.872 36.197l-2.086 1.016-2.157 1-2.176.96-2.226.934c-19.47 7.976-43.34 12.505-43.742-.644-1.299-23.44 51.786-33.27 72.662-41.18l1.86-.735c19.5-7.464 48.175-23.73 62.102-33.604 10.638-7.91 18.395-20.063 15.007-37.04-1.605-9.427-13.623-23.231-22.671-29.753-9.048-6.523-30.333-6.611-41.565 1.434l-1.724 1.213-1.895 1.284-.33.218-.663.433c-10.793 6.988-24.364 12.98-32.2 5.166-6.396-5.898-3.897-29.713 19.624-30.742l3.894-.088 3.808-.125c17.622-.696 24.29-2.839 37.742-11.274 8.95-4.468 20.314-19.883 5.648-26.36-8.541-1.741-17.403-2.186-22.246-4.152l-1.193-.237-1.757-.394-1.118-.284-1.085-.307c-9.057-2.714-13.703-8.053 5.827-19.732 5.389-3.666 9.178-8.805 4.561-15.102-5.916-17.245-40.934-33.198-64.948-37.369l-3.35-.543-5.86-.849-22.445-3.032-6.899-.985a819.663 819.663 0 0 1-3.524-.524l-8.413-1.322-4.733-.798-4.798-.858C22.14 449.34.295 443.062.76 434.055c1.273-21.088 38.366-12.334 51.34-10.37 5.2.882 13.083 3.316 21.862 6.21l16.036 5.354 5.454 1.79 5.334 1.696a278.42 278.42 0 0 0 7.593 2.256l10.129 2.685 4.71 1.167 3.777.88c24.654 5.565 62.516 10.498 74.243-12.892 6.471-13.963-.22-20.534-7.7-25.96l-4.885-3.456c-3.224-2.327-6.069-4.698-7.44-7.664-3.841-8.089-.902-12.625 2.717-16.426l3.255-3.278c18.672-18.902 48.96-9.834 52.965-35.213 4.601-25.51-7.88-46.553-36.303-68.89l-4.13-3.21-4.26-3.232c-15.232-11.41-26.306-18.104-36.92-24.807l-2.983-1.894c-4.466-2.854-8.913-5.788-13.62-9.16l-2.51-1.67-2.49-1.693-2.58-1.833c-6.792-4.979-12.784-10.75-15.774-19.51-3.452-9.416 10.611-21.025 30.235-13.101l1.184.499c20.632 8.3 36.484 23.356 51.22 39.42l8.99 9.832 3.705 3.967c3.222 3.407 6.758 7.027 10.435 10.543l1.944 1.835 1.843 1.696 2.789 2.477 1.869 1.595 1.917 1.576c12.46 10.038 24.775 15.826 30.937 6.174 5.873-8.433 17.7-9.041 29.47-3.24l1.177.6c8.636 4.78 16.673 1.741 19.044-6.75 6.032-21.146-8.558-48.215-26.604-60.893l-3.165-2.14-2.024-1.414-1.974-1.458c-7.124-5.437-12.88-11.965-13.281-21.97.795-35.852 31.417-12.716 37.521-2.163l.208.371c6.308 10.811 10.242 22.16 20.752 29.576 2.249 1.524 4.493 3.272 6.742 4.989l.844.642c4.922 3.73 9.871 7.164 14.938 7.635 14.162 1.697 25.62-10.68 26.618-24.977.393-13.809 8.435-15.386 19.718-11.11l.874.34c13.205 5.584 52.435-5.723 61.062-16.848 7.285-9.158 10.496-19.032 12.134-30.187l.273-1.982c3.186-20.91-10.35-49.057-17.034-79.975l-.467-2.382-.417-2.427-.359-2.417-.307-2.44c-2.386-20.813.956-43.119 13.536-40.15ZM171.505 310.564c-3.038 14.47-41.775 6.524-41.818-5.302.232-.304-.152-.5.079-.803 2.046-16.662 45.942-11.987 41.739 6.105Zm-3.617-167.576c-.178.394-.567.208-.746.603-11.601 7.885-39.144-18.706-26.527-30.901 15.57-15.581 42.544 17.452 27.273 30.298Z"/></svg>