<svg xmlns="http://www.w3.org/2000/svg" width="31" height="31"><path fill="#222629" fill-rule="evenodd" d="M7.46 29.975c.82.411 1.639.514 2.458-.102.717-.513 1.127-1.232 1.536-1.848.615-.924 1.229-2.053 2.048-2.874l.717-.616c.614-.616 1.126-.308 1.946.205.307.205.614.616.819.924.614.924 1.331 1.848 2.048 2.772.307.41.614.82.921 1.129.82.821 1.946.924 2.868.308.716-.513 1.638-.924 2.355-1.437 1.229-.822 1.74-2.053.819-3.388l-.512-.821a77.8 77.8 0 0 0-2.56-3.593c-.307-.41-.512-.821-.717-1.13-.307-.41-.102-.923.103-1.334.204-.41.614-.719 1.024-.821 1.126-.308 2.355-.924 3.481-1.232l1.331-.41c.82-.206 1.434-.72 1.844-1.438.204-.41.204-.718.102-1.13-.307-1.23-.614-2.36-1.024-3.49-.41-1.129-1.434-1.642-2.56-1.334-.82.205-1.638.719-2.56.719-.102 0-.307 0-.41.102-.307.308-.819.206-1.228.308l-1.639.411c-.717.103-1.126-.205-1.433-.924-.103-.205-.205-.513-.205-.719 0-.615-.103-1.334-.103-1.95V4.106c0-.821 0-1.745-.204-2.566-.205-.821-.82-1.232-1.741-1.437C16.472 0 15.857 0 15.345 0c-.819 0-1.638 0-2.457.103-.615.102-1.127.41-1.331 1.026a5.99 5.99 0 0 0-.308 1.95v1.848h.103c0 .514-.103 1.027-.103 1.643 0 .513-.102 1.13-.102 1.642 0 1.232-1.024 1.848-2.15 1.643-.512-.103-1.127-.308-1.639-.513-1.331-.514-2.56-.924-3.993-1.13-.922-.102-1.639.206-2.048 1.027a21.215 21.215 0 0 0-1.23 3.593c-.306 1.13.206 2.053 1.332 2.566.82.411 1.74.719 2.662 1.027 1.127.41 2.15.513 3.175 1.13.512.307.819.718.819 1.231 0 .616-.205 1.232-.717 1.848-.512.616-.819 1.437-1.433 2.053-.205.205-.308.513-.512.719-.512.513-.82 1.026-1.127 1.642-.512 1.027-.512 2.053.307 2.874.82.822 1.844 1.54 2.868 2.053Z"/></svg>