<svg xmlns="http://www.w3.org/2000/svg" width="36" height="36" viewBox="0 0 36 36"><path fill="#616F39" fill-rule="evenodd" d="M17.908756,0.000235162378 C27.8429222,-0.0500631515 35.9489998,7.97468437 35.9997685,17.9089592 C36.049669,27.8432341 28.0250092,35.9494002 18.0908429,35.9997722 C8.15667671,36.0500705 0.0505991979,28.025323 0.000231480496,18.0910482 C-0.0496689421,8.1567733 7.97458977,0.0506071617 17.908756,0.000235162378 Z M24.6648233,21.0939112 L14.5730355,11.1038867 L12.071947,13.6306714 C11.5208733,14.1873662 11.5252851,15.0817678 12.0819739,15.6328476 L13.5952206,17.1308699 C14.1519093,17.6819497 14.1563211,18.59079 13.6052474,19.1474848 C12.75738,20.0037841 11.5826385,20.7341452 10.4788868,21.5635723 C9.98356222,21.9353707 9.48863868,22.3212067 9.05066744,22.7639956 C7.15720389,24.6767316 5.70772766,27.311406 7.13474383,28.7103624 C8.54812353,30.1233565 11.1679295,28.6469923 13.061393,26.7486951 C13.4997654,26.3063072 13.8803832,25.8069664 14.2614021,25.293989 C15.0651516,24.1822037 15.7834725,22.9994278 16.6457785,22.1431285 C17.1968522,21.5864337 18.091244,21.5820219 18.6479327,22.1331016 L20.1611795,23.6307229 C20.7178682,24.1818026 21.6126611,24.1773908 22.1637348,23.620696 L24.6648233,21.0939112 Z M25.6679057,20.0807909 L33.1567326,12.5152765 C30.3195453,13.112079 28.5115102,12.2405388 26.8310162,11.340121 C24.7229788,10.1862226 24.4073347,9.50599614 22.6831238,8.37856885 C20.9589128,7.26517925 18.4016742,7.15047124 17.6957865,7.94941652 L15.576118,10.0903653 L25.6679057,20.0807909 Z"/></svg>